<svg id="svg" version="1.1" xmlns="http://www.w3.org/2000/svg" xmlns:xlink="http://www.w3.org/1999/xlink" width="400" height="400" viewBox="0, 0, 400,400"><g id="svgg"><path id="path0" d="M224.609 6.299 C 223.211 6.676,222.422 6.976,220.703 7.783 C 210.444 12.598,206.219 24.729,211.093 35.375 C 212.225 37.847,212.403 38.086,215.323 41.043 C 217.711 43.461,218.966 44.286,222.461 45.733 C 232.310 49.813,244.957 44.045,248.824 33.711 C 254.594 18.289,240.268 2.072,224.609 6.299 " stroke="none" fill="#2cbccc" fill-rule="evenodd"></path><path id="path1" d="M229.004 5.738 C 229.380 5.836,229.995 5.836,230.371 5.738 C 230.747 5.640,230.439 5.559,229.688 5.559 C 228.936 5.559,228.628 5.640,229.004 5.738 M228.813 47.151 C 229.299 47.245,230.002 47.241,230.376 47.143 C 230.749 47.046,230.352 46.969,229.492 46.974 C 228.633 46.978,228.327 47.058,228.813 47.151 M192.578 53.571 C 95.898 57.337,30.705 156.908,65.503 247.656 C 77.186 278.123,102.231 307.373,128.219 320.903 C 132.029 322.887,131.819 323.747,131.938 305.685 L 132.040 290.165 130.751 288.930 C 130.042 288.251,127.850 286.398,125.881 284.813 C 107.924 270.359,93.409 247.298,87.865 224.414 C 71.478 156.769,116.361 91.559,185.505 82.557 C 194.408 81.397,212.764 81.882,218.972 83.440 L 219.794 83.646 220.053 117.311 C 220.195 135.827,220.312 162.257,220.312 176.044 L 220.313 201.111 218.848 201.574 C 218.042 201.829,216.442 202.557,215.293 203.192 C 213.260 204.316,213.181 204.328,212.395 203.639 C 211.951 203.249,203.228 195.308,193.011 185.993 L 174.435 169.056 173.420 166.071 C 168.427 151.382,150.182 147.127,139.215 158.094 C 131.614 165.695,131.195 178.305,138.284 186.061 L 140.183 188.140 139.659 271.316 C 139.370 317.063,139.118 354.511,139.098 354.534 C 139.079 354.557,138.051 355.201,136.814 355.964 C 123.022 364.477,123.390 384.550,137.474 391.951 C 160.759 404.187,180.237 370.894,158.310 356.336 L 156.133 354.890 156.387 347.304 C 156.526 343.132,156.641 338.257,156.641 336.470 L 156.641 333.222 157.654 333.608 C 161.883 335.216,174.944 337.883,183.398 338.866 C 238.278 345.244,293.649 317.892,321.894 270.452 C 380.517 171.990,307.246 49.105,192.578 53.571 M243.989 90.830 C 304.648 116.243,331.583 189.224,301.943 247.852 C 275.864 299.434,215.482 324.033,161.621 305.017 L 158.203 303.810 158.203 262.516 C 158.203 239.804,158.087 214.879,157.945 207.127 L 157.687 193.033 159.403 192.570 C 161.759 191.936,164.713 190.407,166.705 188.790 C 168.830 187.066,166.506 185.274,186.791 204.276 C 203.998 220.393,204.501 220.906,204.810 222.635 C 206.931 234.520,214.821 241.797,225.586 241.797 C 244.184 241.797,253.448 218.088,239.610 205.907 L 237.891 204.394 237.882 188.037 C 237.862 146.597,238.776 89.063,239.454 89.063 C 239.629 89.063,241.669 89.858,243.989 90.830 " stroke="none" fill="#043464" fill-rule="evenodd"></path></g></svg>